<?xml version="1.0" encoding="utf-8"?>
<!-- Generator: Adobe Illustrator 16.0.0, SVG Export Plug-In . SVG Version: 6.00 Build 0)  -->
<!DOCTYPE svg PUBLIC "-//W3C//DTD SVG 1.1//EN" "http://www.w3.org/Graphics/SVG/1.1/DTD/svg11.dtd">
<svg version="1.1" id="Capa_1" xmlns="http://www.w3.org/2000/svg" xmlns:xlink="http://www.w3.org/1999/xlink" x="0px" y="0px"
	 width="279.072px" height="90.315px" viewBox="0 0 279.072 90.315" enable-background="new 0 0 279.072 90.315"
	 xml:space="preserve">
<path fill="#FFFFFF" d="M142.72,57.306l-1.227-0.959v-1.439h1.728v1.055h0.692v-1.688h-1.193l-1.227-1.228v-2.457l1.227-0.959h1.69
	l1.229,0.959v1.574h-1.726v-0.922h-0.692V52.7h1.189l1.382,1.266v2.381l-1.382,0.959H142.72L142.72,57.306z M126.785,57.306h-3.118
	V49.63h2.926l1.104,0.959V52.7l-0.767,0.622l0.959,0.769v1.968L126.785,57.306L126.785,57.306z M125.441,51.069V52.7h0.672v-1.631
	H125.441L125.441,51.069z M125.441,54.091v1.632h0.672v-1.632H125.441L125.441,54.091z M133.999,57.306h-1.727l1.065-7.676h2.532
	l1.247,7.676h-1.679l-0.288-1.439h-1.007L133.999,57.306L133.999,57.306z M134.288,54.427h0.911l-0.576-3.118L134.288,54.427
	L134.288,54.427z M64.216,56.249v-5.66l1.055-0.959h2.063l1.007,0.959v1.967h-1.535v-1.439h-0.864v4.75h0.815v-1.728h1.728v2.063
	l-1.151,1.104h-2.015L64.216,56.249L64.216,56.249z M73.234,50.589v5.66l-1.151,1.057H70.02l-1.055-1.057v-5.66l1.055-0.959h2.063
	L73.234,50.589L73.234,50.589z M71.507,55.866v-4.75h-0.815v4.75H71.507L71.507,55.866z M75.479,57.306h-1.774V49.63h1.774
	l0.863,2.975V49.63h1.679v7.676h-1.679l-0.863-2.83V57.306L75.479,57.306z M81.859,57.306h-3.262v-7.629h3.357l1.056,1.056v5.326
	L81.859,57.306L81.859,57.306z M80.517,51.069v4.75h0.719v-4.75H80.517L80.517,51.069z M86.733,57.306H84.67l-1.199-1.247V49.63
	h1.823v6.236h0.768V49.63h1.679v6.236L86.733,57.306L86.733,57.306z M88.221,56.249v-5.66l1.055-0.959h2.063l1.007,0.959v1.967
	h-1.536v-1.439h-0.863v4.75h0.816v-1.728h1.726v2.063l-1.15,1.104h-2.015L88.221,56.249L88.221,56.249z M92.97,56.249v-5.66
	l1.056-0.959h2.062l1.007,0.959v1.967H95.56v-1.439h-0.864v4.75h0.815v-1.728h1.728v2.063l-1.151,1.104h-2.015L92.97,56.249
	L92.97,56.249z M97.719,49.63h1.852v7.676h-1.852V49.63L97.719,49.63z M104.281,50.589v5.66l-1.151,1.057h-2.063l-1.056-1.057v-5.66
	l1.056-0.959h2.063L104.281,50.589L104.281,50.589z M102.555,55.866v-4.75h-0.816v4.75H102.555L102.555,55.866z M106.526,57.306
	h-1.775V49.63h1.775l0.863,2.975V49.63h1.68v7.676h-1.68l-0.863-2.83V57.306L106.526,57.306z M115.688,57.306h-3.262v-7.629h3.357
	l1.056,1.056v5.326L115.688,57.306L115.688,57.306z M114.346,51.069v4.75h0.72v-4.75H114.346L114.346,51.069z M119.248,55.981h1.411
	v1.324h-3.262V49.63h3.301v1.516h-1.487v1.41h1.171v1.449h-1.133V55.981L119.248,55.981z M130.315,55.981h1.41v1.324h-3.262V49.63
	h3.3v1.516h-1.487v1.41h1.17v1.449h-1.132V55.981L130.315,55.981z M140.073,57.306h-1.728v-6.236h-1.007V49.63h3.693v1.439h-0.959
	V57.306L140.073,57.306z"/>
<path fill="#FFFFFF" d="M279.072,15.041l-0.98,9.265h-17.437l-0.325,2.398h17.325l-2.07,20.272h-28.986l0.765-8.392h17.216v-3.053
	H247.8l1.74-20.49H279.072L279.072,15.041z M16.672,24.305l0.872-9.7h14.493L29.094,47.63H0L3.486,9.373H0.762V0H15.8l-3.051,37.82
	h5.121l1.526-13.406L16.672,24.305L16.672,24.305z M35.85,14.822h28.877l-0.654,8.829l-4.25,12.098l-12.313-0.218l3.813-11.335
	l-5.122-0.109l-1.417,13.842h17.108v10.137H32.146L35.85,14.822L35.85,14.822z M100.797,8.61h11.551l-0.436,5.776l5.449-0.109
	l-0.763,9.592l-5.885-0.109l-1.199,14.496l5.885,0.328l-0.872,9.482H96.874L100.797,8.61L100.797,8.61z M120.63,14.931l46.53-0.109
	l-3.596,44.36L150.16,74.224l3.923-50.028h-4.903l-2.287,23.542h-12.642l2.724-23.542h-5.449l-1.743,22.998h-11.66L120.63,14.931
	L120.63,14.931z M78.785,24.414l-1.198,13.515h5.231l0.762-13.515H78.785L78.785,24.414z M67.234,14.822h29.748L93.823,47.63h-11.66
	v-4.796l-6.32,4.796H64.619L67.234,14.822L67.234,14.822z M169.885,14.277h12.313l-2.833,33.134H167.16L169.885,14.277
	L169.885,14.277z M184.922,15.259l29.205-0.218l-3.161,32.044h-11.66l2.07-22.889h-5.338l-2.397,22.889h-11.335L184.922,15.259
	L184.922,15.259z M217.505,15.367h14.492l-0.545,8.611h-3.16l-1.09,14.169h5.123l2.832-28.774l-2.832-0.109L233.197,0h15.038
	l-4.578,47.411h-29.312L217.505,15.367L217.505,15.367z"/>
<path fill="#BE1622" d="M204.245,49.836l0.645,3.229l-16.792,21.102c0,0-23.688,5.656-35.092,14.211
	c-1.724,1.293-3.66,1.938-3.66,1.938l-6.243-3.875l34.015-36.82L204.245,49.836L204.245,49.836z"/>
<path fill="#BE1622" d="M211.996,49.62h26.911l1.291,3.445l-12.057,13.35c0,0-26.91,3.23-35.523,6.029L211.996,49.62L211.996,49.62z
	"/>
<path fill="#BE1622" d="M247.52,49.836h25.403l2.369,4.307l-10.551,10.98c0,0-24.758-1.291-32.94,0.647L247.52,49.836L247.52,49.836
	z"/>
<path fill="#FFFFFF" d="M95.744,6.933H94.41V5.637h1.334V6.933L95.744,6.933z M95.744,10.771H94.41V9.476h1.334V10.771
	L95.744,10.771z M24.679,10.771h-3.262V3.143h3.358l1.056,1.055v5.326L24.679,10.771L24.679,10.771z M23.336,4.534v4.75h0.72v-4.75
	H23.336L23.336,4.534z M27.539,10.771L26.291,9.62V7.796h1.583v1.44h0.576V3.095h1.871v6.381l-1.103,1.295H27.539L27.539,10.771z
	 M36.95,10.771h-3.262V3.143h3.357l1.056,1.055v5.326L36.95,10.771L36.95,10.771z M35.607,4.534v4.75h0.72v-4.75H35.607
	L35.607,4.534z M40.289,10.771h-1.727l1.065-7.676h2.533l1.247,7.676h-1.679L41.44,9.332h-1.007L40.289,10.771L40.289,10.771z
	 M40.577,7.893h0.911l-0.575-3.118L40.577,7.893L40.577,7.893z M43.628,9.716V4.054l1.055-0.959h2.063l1.008,0.959v1.968h-1.536
	v-1.44h-0.864v4.75h0.816V7.605h1.727v2.063l-1.151,1.103h-2.015L43.628,9.716L43.628,9.716z M50.324,9.447h1.411v1.324h-3.263
	V3.095h3.301v1.516h-1.487v1.411h1.171v1.449h-1.133V9.447L50.324,9.447z M52.282,3.095h1.822v6.333h1.612v1.343h-3.435V3.095
	L52.282,3.095z M60.802,10.771h-1.871V3.095h3.022l1.007,1.103v2.879l-1.007,1.008h-1.151V10.771L60.802,10.771z M60.802,4.611
	v2.091h0.595V4.611H60.802L60.802,4.611z M65.1,7.902v2.869h-1.774V3.095h2.926l1.104,0.959v2.111l-0.768,0.739l0.768,0.988v2.878
	h-1.583V7.902H65.1L65.1,7.902z M65.1,4.534v1.631h0.672V4.534H65.1L65.1,4.534z M69.744,9.447h1.41v1.324h-3.263V3.095h3.3v1.516
	h-1.487v1.411h1.17v1.449h-1.131V9.447L69.744,9.447z M72.929,10.771L71.7,9.812V8.372h1.728v1.056h0.691V7.739h-1.19L71.7,6.511
	V4.054l1.229-0.959h1.688l1.228,0.959v1.574h-1.726V4.707h-0.691v1.458h1.189l1.382,1.267v2.38l-1.382,0.959H72.929L72.929,10.771z
	 M78.34,9.447h1.411v1.324h-3.262V3.095h3.3v1.516h-1.487v1.411h1.171v1.449H78.34V9.447L78.34,9.447z M82.072,10.771h-1.775V3.095
	h1.775l0.864,2.975V3.095h1.679v7.676h-1.679L82.072,7.94V10.771L82.072,10.771z M87.924,10.771h-1.727V4.534H85.19V3.095h3.693
	v1.439h-0.96V10.771L87.924,10.771z M91.071,10.771h-1.727l1.064-7.676h2.533l1.247,7.676H92.51l-0.288-1.439h-1.008L91.071,10.771
	L91.071,10.771z M91.359,7.893h0.911l-0.575-3.118L91.359,7.893L91.359,7.893z"/>
</svg>
