<?xml version="1.0" encoding="utf-8"?>
<!-- Generator: Adobe Illustrator 16.0.0, SVG Export Plug-In . SVG Version: 6.00 Build 0)  -->
<!DOCTYPE svg PUBLIC "-//W3C//DTD SVG 1.1//EN" "http://www.w3.org/Graphics/SVG/1.1/DTD/svg11.dtd">
<svg version="1.1" id="Capa_1" xmlns="http://www.w3.org/2000/svg" xmlns:xlink="http://www.w3.org/1999/xlink" x="0px" y="0px"
	 width="218.183px" height="70.609px" viewBox="-22.226 -0.888 218.183 70.609"
	 enable-background="new -22.226 -0.888 218.183 70.609" xml:space="preserve">
<g>
	<path fill="#FFFFFF" d="M89.356,43.915l-0.959-0.749v-1.125h1.351v0.824h0.54v-1.319h-0.931l-0.959-0.959v-1.923l0.959-0.748h1.32
		l0.961,0.748v1.231h-1.35v-0.723h-0.54v1.141h0.929l1.081,0.99v1.859l-1.081,0.751L89.356,43.915L89.356,43.915z M76.898,43.915
		H74.46v-6.002h2.288l0.863,0.75v1.65l-0.6,0.486l0.75,0.601v1.539L76.898,43.915L76.898,43.915z M75.847,39.04v1.273h0.525V39.04
		H75.847L75.847,39.04z M75.847,41.4v1.275h0.525V41.4H75.847L75.847,41.4z M82.538,43.915h-1.35l0.833-6.002H84l0.975,6.002h-1.313
		l-0.224-1.123h-0.789L82.538,43.915L82.538,43.915z M82.764,41.665h0.713l-0.452-2.438L82.764,41.665L82.764,41.665z
		 M27.981,43.086v-4.424l0.825-0.75h1.612l0.788,0.75v1.538h-1.2v-1.125h-0.675v3.716h0.637V41.44h1.35v1.612l-0.898,0.862h-1.575
		L27.981,43.086L27.981,43.086z M35.031,38.663v4.424l-0.901,0.828h-1.611l-0.826-0.828v-4.424l0.826-0.75h1.611L35.031,38.663
		L35.031,38.663z M33.681,42.789v-3.715h-0.638v3.715H33.681L33.681,42.789z M36.786,43.915h-1.387v-6.002h1.387l0.674,2.326v-2.326
		h1.312v6.002H37.46l-0.674-2.213V43.915L36.786,43.915z M41.773,43.915h-2.55v-5.963h2.624l0.827,0.824v4.165L41.773,43.915
		L41.773,43.915z M40.724,39.04v3.711h0.562V39.04H40.724L40.724,39.04z M45.584,43.915h-1.613l-0.937-0.976v-5.026h1.424v4.876h0.6
		v-4.876h1.313v4.876L45.584,43.915L45.584,43.915z M46.747,43.086v-4.424l0.825-0.75h1.613l0.788,0.75v1.538h-1.201v-1.125h-0.675
		v3.716h0.64V41.44h1.349v1.612l-0.898,0.862H47.61L46.747,43.086L46.747,43.086z M50.461,43.086v-4.424l0.826-0.75h1.611
		l0.788,0.75v1.538h-1.2v-1.125H51.81v3.716h0.637V41.44H53.8v1.612l-0.901,0.862h-1.575L50.461,43.086L50.461,43.086z
		 M54.174,37.913h1.448v6.001h-1.448V37.913L54.174,37.913z M59.304,38.663v4.424l-0.9,0.828H56.79l-0.825-0.828v-4.424l0.825-0.75
		h1.613L59.304,38.663L59.304,38.663z M57.955,42.789v-3.715h-0.64v3.715H57.955L57.955,42.789z M61.06,43.915h-1.387v-6.002h1.387
		l0.674,2.326v-2.326h1.313v6.002h-1.313l-0.674-2.213V43.915L61.06,43.915z M68.221,43.915h-2.55v-5.963h2.624l0.827,0.824v4.165
		L68.221,43.915L68.221,43.915z M67.173,39.04v3.711h0.561V39.04H67.173L67.173,39.04z M71.005,42.878h1.104v1.034h-2.551v-6h2.58
		v1.186h-1.163v1.103h0.917v1.132h-0.885L71.005,42.878L71.005,42.878z M79.657,42.878h1.103v1.034h-2.552v-6h2.581v1.186h-1.163
		v1.103h0.914v1.132h-0.884L79.657,42.878L79.657,42.878z M87.286,43.915h-1.351V39.04h-0.788v-1.127h2.887v1.127h-0.75
		L87.286,43.915L87.286,43.915z"/>
	<path fill="#FFFFFF" d="M195.957,10.871l-0.767,7.243h-13.633l-0.254,1.876h13.545l-1.618,15.848h-22.661l0.598-6.562h13.459
		v-2.386h-13.12l1.361-16.02L195.957,10.871L195.957,10.871z M-9.189,18.114l0.681-7.583h11.33l-2.3,25.819h-22.748L-19.5,6.44
		h-2.129v-7.329H-9.87l-2.387,29.567h4.004l1.193-10.48L-9.189,18.114L-9.189,18.114z M5.804,10.701H28.38l-0.512,6.901
		l-3.322,9.459l-9.627-0.17l2.981-8.862l-4.004-0.086l-1.108,10.822h13.375v7.926H2.908L5.804,10.701L5.804,10.701z M56.579,5.844
		h9.031l-0.341,4.515l4.26-0.084l-0.597,7.5l-4.601-0.086l-0.937,11.334l4.602,0.256l-0.683,7.414h-13.8L56.579,5.844L56.579,5.844z
		 M72.085,10.785l36.377-0.084l-2.811,34.681L95.171,57.14l3.066-39.111h-3.832l-1.788,18.405h-9.884l2.13-18.405h-4.261
		L79.24,36.008h-9.116L72.085,10.785L72.085,10.785z M39.371,18.2l-0.937,10.565h4.09L43.12,18.2H39.371L39.371,18.2z M30.34,10.701
		h23.256l-2.469,25.648H42.01V32.6l-4.94,3.749h-8.776L30.34,10.701L30.34,10.701z M110.595,10.275h9.625l-2.215,25.903h-9.541
		L110.595,10.275L110.595,10.275z M122.351,11.042l22.83-0.171l-2.47,25.053h-9.115l1.618-17.895h-4.174l-1.875,17.895h-8.861
		L122.351,11.042L122.351,11.042z M147.823,11.127h11.33l-0.426,6.731h-2.472l-0.852,11.077h4.005l2.215-22.494l-2.215-0.085
		l0.683-7.243h11.757l-3.58,37.066h-22.916L147.823,11.127L147.823,11.127z"/>
	<path fill="#BE1622" d="M137.456,38.075l0.504,2.522l-13.127,16.498c0,0-18.521,4.423-27.436,11.112
		c-1.348,1.01-2.861,1.514-2.861,1.514l-4.881-3.029l26.594-28.785L137.456,38.075L137.456,38.075z"/>
	<path fill="#BE1622" d="M143.517,37.904h21.039l1.009,2.693l-9.425,10.438c0,0-21.039,2.524-27.773,4.713L143.517,37.904
		L143.517,37.904z"/>
	<path fill="#BE1622" d="M171.29,38.075h19.859l1.853,3.367l-8.249,8.584c0,0-19.356-1.01-25.751,0.504L171.29,38.075L171.29,38.075
		z"/>
	<path fill="#FFFFFF" d="M52.629,4.533h-1.043V3.52h1.043V4.533L52.629,4.533z M52.629,7.533h-1.043V6.521h1.043V7.533L52.629,7.533
		z M-2.93,7.533h-2.55V1.569h2.626l0.826,0.825v4.164L-2.93,7.533L-2.93,7.533z M-3.979,2.657v3.713h0.563V2.657H-3.979
		L-3.979,2.657z M-0.693,7.533L-1.67,6.633V5.208h1.238v1.126h0.452V1.532h1.462v4.989L0.62,7.533H-0.693L-0.693,7.533z
		 M6.664,7.533H4.113V1.569h2.624l0.826,0.825v4.164L6.664,7.533L6.664,7.533z M5.614,2.657v3.713h0.562V2.657H5.614L5.614,2.657z
		 M9.273,7.533h-1.35l0.833-6.001h1.982l0.975,6.001H10.4l-0.225-1.124H9.387L9.273,7.533L9.273,7.533z M9.499,5.282h0.713
		L9.761,2.844L9.499,5.282L9.499,5.282z M11.884,6.708V2.282l0.826-0.75h1.612l0.788,0.75v1.539h-1.2V2.695h-0.676v3.714h0.638
		V5.058h1.351V6.67l-0.901,0.862h-1.575L11.884,6.708L11.884,6.708z M17.119,6.499h1.104v1.034h-2.551V1.532h2.58v1.187h-1.163
		v1.103h0.916v1.132h-0.885V6.499L17.119,6.499z M18.649,1.532h1.425v4.951h1.261v1.05h-2.687V1.532L18.649,1.532z M25.312,7.533
		h-1.463V1.532h2.363l0.787,0.862v2.251l-0.787,0.788h-0.9V7.533L25.312,7.533z M25.312,2.718v1.635h0.464V2.718H25.312
		L25.312,2.718z M28.671,5.29v2.243h-1.387V1.532h2.288l0.863,0.75v1.649l-0.602,0.578l0.602,0.772v2.25h-1.238V5.29H28.671
		L28.671,5.29z M28.671,2.657v1.274h0.526V2.657H28.671L28.671,2.657z M32.303,6.499h1.103v1.034h-2.551V1.532h2.58v1.187H32.27
		v1.103h0.915v1.132H32.3L32.303,6.499L32.303,6.499z M34.793,7.533l-0.961-0.749V5.658h1.351v0.826h0.541v-1.32h-0.931l-0.961-0.96
		V2.283l0.961-0.75h1.319l0.961,0.75v1.231h-1.35V2.794h-0.541v1.14h0.93l1.08,0.99v1.86l-1.08,0.749L34.793,7.533L34.793,7.533z
		 M39.023,6.499h1.103v1.034h-2.551V1.532h2.58v1.187h-1.162v1.103h0.916v1.132h-0.884v1.546H39.023z M41.941,7.533h-1.388V1.532
		h1.388l0.676,2.326V1.532h1.312v6.001h-1.312L41.941,5.32V7.533L41.941,7.533z M46.515,7.533h-1.351V2.657h-0.787V1.532h2.887
		v1.125h-0.75L46.515,7.533L46.515,7.533z M48.976,7.533h-1.349l0.832-6.001h1.979l0.976,6.001H50.1l-0.224-1.124h-0.789
		L48.976,7.533L48.976,7.533z M49.202,5.282h0.711l-0.449-2.438L49.202,5.282L49.202,5.282z"/>
</g>
</svg>
